<svg xmlns="http://www.w3.org/2000/svg" viewBox="0 0 174 174">  
<path d="M 37.282 86.608 c -4.1196 -1.4664 -3.2704 -7.41 1.058 -7.4076 c 4.0472 0.0024 5.358 5.134 1.828 7.1564 c -0.5004 0.2868 -2.3372 0.4464 -2.8864 0.2508 m -2.2272 -8.8008 c -3.0944 -0.1788 -6.9148 -1.1008 -7.8292 -1.8892 c -1.66 -1.4308 0.0984 -3.984 2.2848 -3.3184 c 2.236 0.7464 4.5392 1.028 6.878 1.1784 l -0.0472 -1.7488 l -0.0472 -1.7488 c -3.7072 -4.9036 -0.3616 -0.3864 -5.132 -6.612 c -1.2188 -1.5912 -1.28 -2.5368 -0.2236 -3.4644 c 1.312 -1.152 2.354 -0.6348 4.544 2.2532 c 1.5448 2.038 1.1608 1.424 2.0012 2.532 c 0.9144 1.2048 0.9032 1.204 1.7036 0.176 c 0.232 -0.298 1.1592 -1.4308 2.9628 -3.7688 c 1.4556 -1.8864 2.6548 -2.2196 3.8148 -1.0592 c 0.9096 0.9096 0.9072 1.7188 -0.0092 2.9296 c -1.48 1.998 -2.98 3.994 -4.5976 5.8848 c -0.8236 0.9604 -0.9 1.1856 -0.9008 2.6368 c -0.0008 1.8404 0.1232 2.1516 0.8048 2.024 c 0.8576 -0.1612 2.388 -0.2404 3.922 -0.65 c 3.4388 -0.918 4.0296 -0.8676 4.688 0.4008 c 0.7148 1.3784 -1.2056 2.488 -2.244 2.936 c -3.024 1.3024 -8.238 1.5336 -12.5732 1.308 m -19.3984 -8.4736 c -0.828 -0.2748 -3.2268 -2.9472 -3.64 -3.4448 c -4.8556 -5.858 -8.664 -15.1088 -6.8784 -16.708 c 1.4184 -1.2704 3.7096 -0.2144 3.7096 1.71 c 0 0.584 1.784 5.3692 2.1948 5.888 c 0.0396 0.05 0.6528 -0.2768 2.0388 -1.0872 c 1.01 -0.5908 1.14 -0.7868 1.9696 -2.9796 c 0.5068 -1.3384 0.9292 -2.3984 1.2096 -3.0336 c 0.1024 -0.2328 0.4572 -1.122 0.788 -1.976 c 0.9884 -2.548 2.4056 -3.2232 3.8412 -1.8288 c 1.2848 1.5244 -0.2988 4.1884 -0.966 5.8548 c -1.2848 3.1884 -1.2936 3.2416 -0.5568 3.2416 c 0.4452 0 2.0128 0.2208 5.6256 0.792 c 2.2592 0.3568 3.1948 1.51 2.4248 2.9896 c -0.7052 1.3556 -1.3108 1.4212 -6.0104 0.6528 l -2.54 -0.4152 c -1.9732 -0.322 -2.5972 -0.3504 -2.9736 -0.1344 c -0.9096 0.5096 -1.9056 0.9384 -2.6712 1.6584 c 0 0.3468 1.9236 2.6808 3.8476 4.6688 c 1.1756 1.2148 1.474 1.8384 1.3068 2.7296 c -0.12 0.6396 -1.1576 1.9408 -2.72 1.422 m 44.104 -4.1876 c 2.424 -2.4632 3.9944 -4.4476 3.7864 -4.784 c -1.2996 -0.9684 -2.5736 -1.7096 -4.238 -1.576 c -1.8332 0.3108 -3.6772 0.5508 -5.5172 0.84 c -3.5476 0.564 -4.8268 -0.0332 -4.5468 -2.122 c 0.1652 -1.2296 0.888 -1.5812 4.0748 -1.9808 c 1.7528 -0.22 3.032 -0.408 4.0352 -0.5508 c 1.0024 -0.1424 0.812 -0.2792 0.3836 -1.216 c -0.28 -0.6108 -2.0212 -4.9452 -2.2624 -5.6304 c -0.5492 -1.5608 0.3172 -2.822 1.9388 -2.822 c 1.0724 0 1.472 0.3124 1.9996 1.5636 c 0.834 2.064 1.7252 4.1096 2.4984 6.1972 c 0.7112 1.9356 0.72 1.9468 2.1932 2.8048 c 0.7496 0.4364 1.4368 0.7936 1.528 0.7936 c 0.3024 0 1.5652 -2.6576 2.2732 -5.574 c 0.4352 -1.7932 1.078 -2.492 2.314 -2.5168 c 4.7512 -0.0932 -0.8968 10.72 -2.0332 12.536 c -2.956 4.7232 -6.3684 8.4404 -7.6936 8.38 c -1.442 -0.0652 -3.432 -1.6008 -0.7344 -4.3424 m -56.892 1.6112 c -2.804 -0.9996 -3.3536 -4.9392 -0.9268 -6.6412 c 3.8032 -2.6668 8.1264 2.2416 5.0112 5.69 c -0.9732 1.0768 -2.6416 1.4656 -4.084 0.9512 m 68.3224 -0.0044 c -2.5584 -0.9404 -3.1572 -4.8424 -1.0012 -6.522 c 3.052 -2.3772 7.2248 0.526 6.026 4.192 c -0.648 1.98 -3.0044 3.0724 -5.0252 2.33 M 18.2884 41.2152 c -0.518 -0.34 -0.7144 -1.0976 -1.8896 -3.6724 c -0.6936 -1.5196 -1.5448 -5.3584 -2.5904 -5.9648 c -0.724 -0.42 -0.7336 -0.384 -1.3872 -0.76 c -1.424 -0.8196 -1.3504 -0.8128 -1.668 -0.1544 c -2.114 4.3808 -1.722 6.604 -3.176 7.4016 c -0.7852 0.4308 -1.7264 0.2864 -2.3768 -0.3648 c -2.1328 -2.134 3.35 -11.9308 3.624 -12.3328 c 3.0952 -4.548 5.2852 -7.0996 6.624 -7.746 c 1.2072 -0.5828 2.7708 0.266 2.9496 1.6012 c 0.1024 0.762 -0.2 1.312 -1.3504 2.4552 c -1.3164 1.3084 -2.916 3.2088 -3.5912 4.268 c -0.332 0.52 -0.2424 0.62 1.3712 1.5308 l 1.2868 0.7268 l 1.4112 -0.1584 c 0.776 -0.0872 1.824 -0.228 2.3284 -0.3136 c 0.5044 -0.0852 1.584 -0.2452 2.3988 -0.3552 s 1.8944 -0.2628 2.3988 -0.34 s 1.108 -0.1016 1.3408 -0.0556 c 1.9596 0.3896 2.86 3.7656 -1.27 4.1912 c -0.4656 0.048 -1.5136 0.1788 -2.3284 0.2908 s -1.7992 0.244 -2.1872 0.2936 c -1.3452 0.1708 -1.378 0.1864 -1.2984 0.6068 c 0.078 0.412 0.6248 1.9248 1.1068 3.0628 c 0.1644 0.388 0.3512 0.8328 0.4144 0.988 c 0.064 0.1552 0.3092 0.7492 0.546 1.32 c 0.3104 0.748 0.4308 1.2652 0.4308 1.852 c 0 1.614 -1.748 2.5276 -3.118 1.6292 m 37.8784 0.0992 c -1.148 -0.9168 -1.1216 -1.484 0.236 -4.9712 c 0.5088 -1.4372 1.1464 -2.8168 1.6836 -4.2436 c -0.7828 -0.2976 -3.588 -0.6448 -4.5776 -0.764 c -3.4112 -0.4112 -4.304 -0.8936 -4.304 -2.3268 c 0 -1.59 1.0388 -2.2652 3.0668 -1.9944 c 1.924 0.2568 4.3152 0.5928 5.1884 0.7288 c 3.0896 0.482 3.1056 0.482 3.8412 0.0352 c 1.4612 -0.888 1.18 -0.5072 2.364 -1.4352 c -1.054 -1.698 -2.4396 -3.1816 -3.8476 -4.634 c -1.334 -1.36 -1.5468 -1.7692 -1.3632 -2.6168 c 0.288 -1.3324 1.6208 -2.0004 2.904 -1.456 c 1.088 0.4612 3.7672 3.4676 5.874 6.59 c 3.21 4.758 4.528 9.7 4.8124 10.884 c 0.4788 1.9944 -0.2352 3.2068 -1.8884 3.208 c -1.1908 0.0008 -1.8088 -0.7136 -2.2424 -2.5396 c -0.2308 -0.97 -0.5552 -1.7888 -0.8452 -2.6812 c -0.4416 -1.3696 -1.182 -2.9632 -1.3764 -2.9632 c -0.152 0 -2.3848 1.2632 -2.8132 1.5912 c -0.124 0.0952 -0.4628 0.776 -0.7528 1.5132 a 887.6 887.6 90 0 1 -2.7028 6.6808 c -0.5252 1.2864 -0.9888 1.646 -2.118 1.6416 c -0.574 -0.002 -0.928 -0.0788 -1.1388 -0.2468 M 3.082 27.2984 C 0.2548 26.442 -0.5724 22.94 1.5684 20.892 c 2.338 -2.2372 6.4328 -0.5448 6.4328 2.6584 c 0 2.5692 -2.5072 4.48 -4.9192 3.7488 m 68.2076 -0.076 c -3.034 -1.262 -3.3372 -5.6976 -0.4708 -6.8828 c 4.102 -1.6964 5.3536 1.864 5.394 1.9816 c 1.0392 3.05 -2.03 6.1052 -4.9232 4.9012 m -39.6524 -0.216 c -3.55 -1.5792 1.562 -6.436 3.2544 -8.584 l 1.3824 -1.764 c -0.072 -0.7036 0.3968 -3.1752 -0.1096 -3.5428 c -0.4904 -0.188 -3.7348 0.2952 -5.684 0.8468 c -1.978 0.56 -2.876 0.4224 -3.5048 -0.5376 c -0.814 -1.2424 -0.1492 -2.6428 1.4864 -3.1316 c 1.4456 -0.432 9.7424 -2.7092 17.6392 -0.632 c 2.4472 0.6432 2.768 0.7428 3.1016 0.9612 c 1.584 1.036 0.8624 3.7032 -1.0024 3.7068 c -0.8856 0.0016 -7.156 -1.8384 -7.614 -1.1148 c -0.0688 0.1092 -0.126 0.8652 -0.1272 1.68 c -0.002 1.796 -0.1464 1.5072 2.226 4.4448 c 0.0628 0.0776 0.808 1.0304 1.6568 2.1168 c 0.8484 1.0868 1.5844 2.0072 1.6356 2.046 c 1.1456 0.8724 0.6248 3.008 -0.854 3.5008 c -1.2308 0.4104 -1.7228 0.0684 -3.8212 -2.654 c -2.9492 -3.8264 -2.9032 -3.7872 -3.4784 -2.9824 c -1.6716 2.3376 -4.3608 5.524 -4.7436 5.6212 c -0.5788 0.1468 -1.0724 0.1532 -1.4432 0.0192 m 5.7504 -19.4164 c -1.0672 -0.088 -2.1344 -1.4004 -2.4708 -2.15 c -1.3436 -2.9932 1.492 -6.12 4.6748 -5.156 c 3.1012 0.9388 3.532 5.5228 0.6568 6.9884 c -0.4948 0.2524 -1.8412 0.402 -2.8608 0.3176 M 124.282 173.608 c -4.1196 -1.4664 -3.2704 -7.41 1.058 -7.4076 c 4.0472 0.0024 5.358 5.134 1.828 7.1564 c -0.5004 0.2868 -2.3372 0.4464 -2.8864 0.2508 m -2.2272 -8.8008 c -3.0944 -0.1788 -6.9148 -1.1008 -7.8292 -1.8892 c -1.66 -1.4308 0.0984 -3.984 2.2848 -3.3184 c 2.236 0.7464 4.5392 1.028 6.878 1.1784 l -0.0472 -1.7488 l -0.0472 -1.7488 c -3.7072 -4.9036 -0.3616 -0.3864 -5.132 -6.612 c -1.2188 -1.5912 -1.28 -2.5368 -0.2236 -3.4644 c 1.312 -1.152 2.354 -0.6348 4.544 2.2532 c 1.5448 2.038 1.1608 1.424 2.0012 2.532 c 0.9144 1.2048 0.9032 1.204 1.7036 0.176 c 0.232 -0.298 1.1592 -1.4308 2.9628 -3.7688 c 1.4556 -1.8864 2.6548 -2.2196 3.8148 -1.0592 c 0.9096 0.9096 0.9072 1.7188 -0.0092 2.9296 c -1.48 1.998 -2.98 3.994 -4.5976 5.8848 c -0.8236 0.9604 -0.9 1.1856 -0.9008 2.6368 c -0.0008 1.8404 0.1232 2.1516 0.8048 2.024 c 0.8576 -0.1612 2.388 -0.2404 3.922 -0.65 c 3.4388 -0.918 4.0296 -0.8676 4.688 0.4008 c 0.7148 1.3784 -1.2056 2.488 -2.244 2.936 c -3.024 1.3024 -8.238 1.5336 -12.5732 1.308 m -19.3984 -8.4736 c -0.828 -0.2748 -3.2268 -2.9472 -3.64 -3.4448 c -4.8556 -5.858 -8.664 -15.1088 -6.8784 -16.708 c 1.4184 -1.2704 3.7096 -0.2144 3.7096 1.71 c 0 0.584 1.784 5.3692 2.1948 5.888 c 0.0396 0.05 0.6528 -0.2768 2.0388 -1.0872 c 1.01 -0.5908 1.14 -0.7868 1.9696 -2.9796 c 0.5068 -1.3384 0.9292 -2.3984 1.2096 -3.0336 c 0.1024 -0.2328 0.4572 -1.122 0.788 -1.976 c 0.9884 -2.548 2.4056 -3.2232 3.8412 -1.8288 c 1.2848 1.5244 -0.2988 4.1884 -0.966 5.8548 c -1.2848 3.1884 -1.2936 3.2416 -0.5568 3.2416 c 0.4452 0 2.0128 0.2208 5.6256 0.792 c 2.2592 0.3568 3.1948 1.51 2.4248 2.9896 c -0.7052 1.3556 -1.3108 1.4212 -6.0104 0.6528 l -2.54 -0.4152 c -1.9732 -0.322 -2.5972 -0.3504 -2.9736 -0.1344 c -0.9096 0.5096 -1.9056 0.9384 -2.6712 1.6584 c 0 0.3468 1.9236 2.6808 3.8476 4.6688 c 1.1756 1.2148 1.474 1.8384 1.3068 2.7296 c -0.12 0.6396 -1.1576 1.9408 -2.72 1.422 m 44.104 -4.1876 c 2.424 -2.4632 3.9944 -4.4476 3.7864 -4.784 c -1.2996 -0.9684 -2.5736 -1.7096 -4.238 -1.576 c -1.8332 0.3108 -3.6772 0.5508 -5.5172 0.84 c -3.5476 0.564 -4.8268 -0.0332 -4.5468 -2.122 c 0.1652 -1.2296 0.888 -1.5812 4.0748 -1.9808 c 1.7528 -0.22 3.032 -0.408 4.0352 -0.5508 c 1.0024 -0.1424 0.812 -0.2792 0.3836 -1.216 c -0.28 -0.6108 -2.0212 -4.9452 -2.2624 -5.6304 c -0.5492 -1.5608 0.3172 -2.822 1.9388 -2.822 c 1.0724 0 1.472 0.3124 1.9996 1.5636 c 0.834 2.064 1.7252 4.1096 2.4984 6.1972 c 0.7112 1.9356 0.72 1.9468 2.1932 2.8048 c 0.7496 0.4364 1.4368 0.7936 1.528 0.7936 c 0.3024 0 1.5652 -2.6576 2.2732 -5.574 c 0.4352 -1.7932 1.078 -2.492 2.314 -2.5168 c 4.7512 -0.0932 -0.8968 10.72 -2.0332 12.536 c -2.956 4.7232 -6.3684 8.4404 -7.6936 8.38 c -1.442 -0.0652 -3.432 -1.6008 -0.7344 -4.3424 m -56.892 1.6112 c -2.804 -0.9996 -3.3536 -4.9392 -0.9268 -6.6412 c 3.8032 -2.6668 8.1264 2.2416 5.0112 5.69 c -0.9732 1.0768 -2.6416 1.4656 -4.084 0.9512 m 68.3224 -0.0044 c -2.5584 -0.9404 -3.1572 -4.8424 -1.0012 -6.522 c 3.052 -2.3772 7.2248 0.526 6.026 4.192 c -0.648 1.98 -3.0044 3.0724 -5.0252 2.33 M 105.2884 128.2152 c -0.518 -0.34 -0.7144 -1.0976 -1.8896 -3.6724 c -0.6936 -1.5196 -1.5448 -5.3584 -2.5904 -5.9648 c -0.724 -0.42 -0.7336 -0.384 -1.3872 -0.76 c -1.424 -0.8196 -1.3504 -0.8128 -1.668 -0.1544 c -2.114 4.3808 -1.722 6.604 -3.176 7.4016 c -0.7852 0.4308 -1.7264 0.2864 -2.3768 -0.3648 c -2.1328 -2.134 3.35 -11.9308 3.624 -12.3328 c 3.0952 -4.548 5.2852 -7.0996 6.624 -7.746 c 1.2072 -0.5828 2.7708 0.266 2.9496 1.6012 c 0.1024 0.762 -0.2 1.312 -1.3504 2.4552 c -1.3164 1.3084 -2.916 3.2088 -3.5912 4.268 c -0.332 0.52 -0.2424 0.62 1.3712 1.5308 l 1.2868 0.7268 l 1.4112 -0.1584 c 0.776 -0.0872 1.824 -0.228 2.3284 -0.3136 c 0.5044 -0.0852 1.584 -0.2452 2.3988 -0.3552 s 1.8944 -0.2628 2.3988 -0.34 s 1.108 -0.1016 1.3408 -0.0556 c 1.9596 0.3896 2.86 3.7656 -1.27 4.1912 c -0.4656 0.048 -1.5136 0.1788 -2.3284 0.2908 s -1.7992 0.244 -2.1872 0.2936 c -1.3452 0.1708 -1.378 0.1864 -1.2984 0.6068 c 0.078 0.412 0.6248 1.9248 1.1068 3.0628 c 0.1644 0.388 0.3512 0.8328 0.4144 0.988 c 0.064 0.1552 0.3092 0.7492 0.546 1.32 c 0.3104 0.748 0.4308 1.2652 0.4308 1.852 c 0 1.614 -1.748 2.5276 -3.118 1.6292 m 37.8784 0.0992 c -1.148 -0.9168 -1.1216 -1.484 0.236 -4.9712 c 0.5088 -1.4372 1.1464 -2.8168 1.6836 -4.2436 c -0.7828 -0.2976 -3.588 -0.6448 -4.5776 -0.764 c -3.4112 -0.4112 -4.304 -0.8936 -4.304 -2.3268 c 0 -1.59 1.0388 -2.2652 3.0668 -1.9944 c 1.924 0.2568 4.3152 0.5928 5.1884 0.7288 c 3.0896 0.482 3.1056 0.482 3.8412 0.0352 c 1.4612 -0.888 1.18 -0.5072 2.364 -1.4352 c -1.054 -1.698 -2.4396 -3.1816 -3.8476 -4.634 c -1.334 -1.36 -1.5468 -1.7692 -1.3632 -2.6168 c 0.288 -1.3324 1.6208 -2.0004 2.904 -1.456 c 1.088 0.4612 3.7672 3.4676 5.874 6.59 c 3.21 4.758 4.528 9.7 4.8124 10.884 c 0.4788 1.9944 -0.2352 3.2068 -1.8884 3.208 c -1.1908 0.0008 -1.8088 -0.7136 -2.2424 -2.5396 c -0.2308 -0.97 -0.5552 -1.7888 -0.8452 -2.6812 c -0.4416 -1.3696 -1.182 -2.9632 -1.3764 -2.9632 c -0.152 0 -2.3848 1.2632 -2.8132 1.5912 c -0.124 0.0952 -0.4628 0.776 -0.7528 1.5132 a 887.6 887.6 90 0 1 -2.7028 6.6808 c -0.5252 1.2864 -0.9888 1.646 -2.118 1.6416 c -0.574 -0.002 -0.928 -0.0788 -1.1388 -0.2468 M 90.082 114.2984 C 87.2548 113.442 86.4276 109.94 88.5684 107.892 c 2.338 -2.2372 6.4328 -0.5448 6.4328 2.6584 c 0 2.5692 -2.5072 4.48 -4.9192 3.7488 m 68.2076 -0.076 c -3.034 -1.262 -3.3372 -5.6976 -0.4708 -6.8828 c 4.102 -1.6964 5.3536 1.864 5.394 1.9816 c 1.0392 3.05 -2.03 6.1052 -4.9232 4.9012 m -39.6524 -0.216 c -3.55 -1.5792 1.562 -6.436 3.2544 -8.584 l 1.3824 -1.764 c -0.072 -0.7036 0.3968 -3.1752 -0.1096 -3.5428 c -0.4904 -0.188 -3.7348 0.2952 -5.684 0.8468 c -1.978 0.56 -2.876 0.4224 -3.5048 -0.5376 c -0.814 -1.2424 -0.1492 -2.6428 1.4864 -3.1316 c 1.4456 -0.432 9.7424 -2.7092 17.6392 -0.632 c 2.4472 0.6432 2.768 0.7428 3.1016 0.9612 c 1.584 1.036 0.8624 3.7032 -1.0024 3.7068 c -0.8856 0.0016 -7.156 -1.8384 -7.614 -1.1148 c -0.0688 0.1092 -0.126 0.8652 -0.1272 1.68 c -0.002 1.796 -0.1464 1.5072 2.226 4.4448 c 0.0628 0.0776 0.808 1.0304 1.6568 2.1168 c 0.8484 1.0868 1.5844 2.0072 1.6356 2.046 c 1.1456 0.8724 0.6248 3.008 -0.854 3.5008 c -1.2308 0.4104 -1.7228 0.0684 -3.8212 -2.654 c -2.9492 -3.8264 -2.9032 -3.7872 -3.4784 -2.9824 c -1.6716 2.3376 -4.3608 5.524 -4.7436 5.6212 c -0.5788 0.1468 -1.0724 0.1532 -1.4432 0.0192 m 5.7504 -19.4164 c -1.0672 -0.088 -2.1344 -1.4004 -2.4708 -2.15 c -1.3436 -2.9932 1.492 -6.12 4.6748 -5.156 c 3.1012 0.9388 3.532 5.5228 0.6568 6.9884 c -0.4948 0.2524 -1.8412 0.402 -2.8608 0.3176"  fill="#fafafa"/></svg>